<?xml version="1.0" standalone="no"?><svg xmlns="http://www.w3.org/2000/svg" viewBox="0 0 1440 320"><path fill="#dddddd" fill-opacity="1" d="M0,96L30,101.3C60,107,120,117,180,133.3C240,149,300,171,360,170.7C420,171,480,149,540,133.3C600,117,660,107,720,128C780,149,840,203,900,208C960,213,1020,171,1080,133.3C1140,96,1200,64,1260,58.7C1320,53,1380,75,1410,85.3L1440,96L1440,320L1410,320C1380,320,1320,320,1260,320C1200,320,1140,320,1080,320C1020,320,960,320,900,320C840,320,780,320,720,320C660,320,600,320,540,320C480,320,420,320,360,320C300,320,240,320,180,320C120,320,60,320,30,320L0,320Z"></path></svg>